<?xml version="1.0" encoding="UTF-8"?>
<svg id="Capa_2" data-name="Capa 2" xmlns="http://www.w3.org/2000/svg" viewBox="0 0 30.89 30.74">
  <defs>
    <style>
      .cls-1 {
        fill: #40b0e5;
      }

      .cls-1, .cls-2, .cls-3, .cls-4, .cls-5, .cls-6, .cls-7, .cls-8, .cls-9 {
        stroke-width: 0px;
      }

      .cls-2 {
        fill: #faf8e5;
      }

      .cls-3 {
        fill: #e52421;
      }

      .cls-4 {
        fill: #1f4496;
      }

      .cls-5 {
        fill: #fff;
      }

      .cls-6 {
        fill: #2e519f;
      }

      .cls-7 {
        fill: #fdd202;
      }

      .cls-8 {
        fill: #f2d197;
      }

      .cls-9 {
        fill: #4ead33;
      }
    </style>
  </defs>
  <g id="Capa_1-2" data-name="Capa 1">
    <path class="cls-6" d="m30.89,15.22c.02,1.96-.28,3.66-.86,5.32-.75,2.14-1.98,3.97-3.56,5.58-1.49,1.52-3.21,2.69-5.18,3.51-1.61.67-3.3,1-5.03,1.1-3.31.2-6.35-.64-9.14-2.41-2.16-1.36-3.83-3.21-5.13-5.39-.83-1.39-1.35-2.9-1.67-4.48C.11,17.41,0,16.36,0,15.3c0-1.43.21-2.82.59-4.19.5-1.81,1.35-3.44,2.48-4.93.95-1.25,2.04-2.36,3.32-3.28.97-.7,2.02-1.26,3.12-1.74C10.97.53,12.5.19,14.08.06c1.44-.12,2.86-.06,4.28.18,1.89.33,3.62,1.05,5.24,2.06,1.5.94,2.79,2.1,3.91,3.47,1.22,1.5,2.07,3.19,2.69,5.01.31.91.46,1.84.59,2.79.08.62.12,1.24.1,1.65Zm-7.04-8.04h0c.03.08.08.13.17.09.1-.04.21-.09.31-.13h0c.17,0,.33-.04.49-.08-.12-.23-.32-.4-.48-.59-.45-.51-.97-.94-1.51-1.34-.23-.17-.47-.34-.7-.51-.09-.06-.12-.11-.03-.21.14-.16.21-.35.29-.54.15,0,.26.08.37.15.16.1.31.21.46.33.11.09.17.09.26-.02.23-.26.49-.26.75-.03.23.21.25.47.03.72-.1.11-.08.18.02.25.24.19.45.42.65.64.12.12.19.18.36.05.23-.18.45-.13.64.08.19.21.2.45.02.67-.06.07-.12.13-.18.2-.03.04-.12.07-.08.13.03.05.09.02.14.02.02,0,.04,0,.06,0,.68,0,.98.37.84,1.04-.03.14-.08.29-.06.44.1,0,.16-.07.23-.1.23-.13.43-.11.58.07.18.2.19.45.03.66-.04.06-.09.11-.14.16-.14.08-.28.15-.42.23-.07-.05-.07-.14-.12-.2-.24-.29-.33-.29-.47.05-.35.88-.98,1.53-1.7,2.1-.78.61-1.68.96-2.63,1.21-.05.01-.16-.01-.13.09.02.09.11.05.17.03.45-.12.9-.25,1.35-.38.87-.25,1.71-.6,2.6-.78.52-.11.52-.11.39-.64-.1-.42.14-.71.59-.7.09.05.18.14.28.08.19-.11.42-.17.57-.35.25-.13.49-.27.74-.39.13-.06.14-.14.08-.26-.18-.38-.35-.75-.56-1.11-1.81-3.09-4.38-5.27-7.73-6.53-.03-.02-.06-.05-.1-.06-.44-.15-.88-.28-1.33-.38-1.46-.32-2.93-.44-4.42-.35-.93.06-1.85.18-2.75.41-1.86.47-3.55,1.31-5.07,2.47-1.96,1.5-3.46,3.38-4.52,5.61-.05.1-.04.15.06.2.27.14.54.28.81.42.16.1.32.2.5.28.13.06.25.08.38,0,.16-.02.28.06.41.13.16.08.23.27.18.45-.05.17-.07.34-.09.52,0,.11.02.17.14.18.77.12,1.49.39,2.22.62.67.21,1.35.42,2.03.6.05.01.13.08.16-.03.03-.11-.08-.07-.12-.08-.68-.18-1.34-.39-1.94-.75-.69-.4-1.3-.89-1.77-1.54-.33-.46-.58-.96-.8-1.5-.11.25-.32.41-.36.66-.12-.13-.27-.23-.44-.3-.06-.07-.14-.11-.17-.2-.09-.24-.05-.44.13-.6.17-.15.33-.15.57,0,.05.03.11.11.17.07.06-.05.01-.13,0-.2-.05-.21-.09-.43-.07-.65.03-.29.22-.5.5-.58.2-.06.41-.03.64-.06-.07-.08-.13-.13-.18-.19-.09-.11-.21-.19-.25-.34-.06-.21.01-.43.21-.56.2-.14.39-.14.6.03.1.08.16.07.24-.02.23-.23.46-.46.7-.68.12-.11.17-.2.04-.33-.07-.07-.13-.16-.12-.28,0-.21.19-.45.4-.51.22-.06.4.01.53.19.08.11.15.12.25.03.2-.19.45-.31.67-.47.05-.04.11-.07.18-.03.05.14.13.27.21.39.16.23.16.24-.06.39-.44.29-.85.63-1.26.96-.48.39-.89.87-1.28,1.35-.11.13-.01.11.07.12.2.04.41.07.6.14.12.05.19.02.24-.1.13-.15.25-.3.39-.44.61-.63,1.31-1.14,2.05-1.6,1.14-.71,2.38-1.15,3.72-1.32.24-.03.48-.05.72-.08.11.01.24.11.32-.04.09-.2.25-.36.37-.54.09-.08.17-.16.27-.24.05-.04.08-.09.08-.16,0-.24.02-.49-.01-.73.07-.19.23-.26.42-.28.26-.03.42.1.53.3,0,.23,0,.47-.01.7,0,.07,0,.14.08.19.26.19.46.45.64.71.04.06.08.09.16.09.16,0,.32.01.49.03.7.08,1.38.19,2.05.42.75.26,1.46.59,2.13,1.01.49.3.97.61,1.4.99.32.29.63.59.91.91.02.02.05.04.07.06.01.01.02.03.03.04Zm-4.14,12.45h0s0,0,0,0c-.18.09-.36.17-.54.25-.09.04-.09.11-.06.19.08.2.15.41.28.59.62,1.19,1.55,1.95,2.9,2.11.62.07,1.19-.07,1.64-.56.09-.09.1-.14-.04-.18-.12-.03-.23-.08-.35-.13-1.3-.57-2.27-1.49-2.83-2.8-.06-.14-.11-.15-.22-.05-.23.21-.49.37-.74.54-.02.01-.03.02-.05.03Zm-9.85,3.71h0c-.2.04-.38.13-.54.25-.54.42-.51,1.12.11,1.44.27.14.43.05.47-.25,0-.05.02-.1.03-.15.01-.03.03-.06.04-.09.14-.29.31-.57.56-.78.2-.17.45-.14.63.04.16.17.16.42-.01.61-.08.09-.16.17-.24.25-.17.18-.16.45.01.61.19.18.44.18.62,0,.15-.15.24-.33.37-.5.27-.36.63-.33.84.07.04.12-.02.22-.07.31-.06.1-.14.19-.2.29-.11.18-.06.28.15.29.14,0,.26-.05.38-.12.32-.22.53-.54.69-.89.2-.45.34-.93.47-1.41.09-.34.23-.65.62-.75.41,0,.82.02,1.23-.02.33.11.5.36.6.68.11.39.23.78.37,1.16.14.42.32.82.67,1.12.16.14.35.25.58.22.15-.02.19-.1.12-.23-.04-.07-.08-.13-.12-.2-.09-.13-.16-.27-.18-.42.05-.21.19-.32.39-.36.19-.03.33.06.44.22.13.18.25.38.41.54.19.18.45.18.63.01.17-.16.18-.38.01-.59-.09-.12-.21-.22-.29-.33-.17-.22-.14-.46.07-.61.21-.16.49-.13.66.08.21.26.41.53.54.85,0,.04.02.09.03.13.04.23.22.32.44.23.33-.13.44-.41.47-.74.03-.34-.11-.59-.41-.75-.31-.16-.62-.29-.94-.43-.66-.39-1.21-.91-1.62-1.56-.17-.27-.32-.56-.48-.84,0-.09-.07-.16-.08-.24-.03-.24-.16-.24-.35-.19-1.1.31-2.23.43-3.37.32-.4-.04-.81-.07-1.2-.17-.21-.06-.42-.11-.64-.16-.07-.02-.14-.04-.17.06-.04.14-.13.26-.16.41-.07.06-.08.14-.12.22-.53,1.04-1.29,1.84-2.37,2.32-.03.02-.07.02-.08.06Zm14.84-5.36s.08.02.11.02c.69.17,1.38.27,2.09.26.33,0,.66-.03.98-.08.25-.04.27-.11.12-.32-.23-.32-.5-.61-.78-.89-.76-.74-1.66-1.19-2.72-1.3-.57-.06-1.15-.05-1.72-.05-.12,0-.26-.02-.36.03-.14.07-.04.24-.08.35-.02.05-.02.11-.03.17-.06.22-.12.43-.18.65-.02.08,0,.13.08.17.6.39,1.24.67,1.94.84.04.01.07.02.11.03.02,0,.04.01.06.02.07.04.15.05.23.04h0s.08.07.14.05Zm-5.46-12.91s-.04-.02-.05-.03c-.16-.1-.34-.15-.52-.2-.47-.14-.95-.26-1.45-.3-.15-.01-.17,0-.12.14.23.6.31,1.22.34,1.86.03.83-.04,1.64-.18,2.45q-.04.26.22.34c.12.04.25.08.37.11.38.09.72.28,1.09.4.26.17.52.34.77.52.1.07.15.06.22-.04.17-.25.37-.48.57-.71.49-.55.88-1.15.86-1.93-.01-.53-.03-1.05-.32-1.52-.28-.45-.72-.69-1.19-.88-.2-.08-.39-.21-.61-.22h0Zm-8.74,14.12s-.07-.07-.11-.11c-.15-.14-.17-.13-.25.06-.07.17-.14.33-.23.49-.64,1.1-1.55,1.87-2.74,2.32-.39.15-.39.17-.06.45.46.41,1.02.42,1.58.34,1.29-.18,2.14-.95,2.77-2.04.12-.19.19-.41.29-.61.05-.1.01-.15-.08-.2-.41-.2-.77-.47-1.16-.71Zm-4.83-1.12c.11-.02.22-.05.32-.07.85-.17,1.67-.44,2.42-.9.29-.18.3-.18.21-.5-.03-.09-.05-.19-.07-.28-.03-.19-.07-.37-.08-.56-.01-.12-.06-.15-.17-.15-.56,0-1.12,0-1.69.03-1.68.08-2.86.97-3.8,2.28-.1.14-.07.2.1.24.28.07.58.08.86.09.64.01,1.27-.05,1.9-.19Zm4.57-.33s.01.07.05.09c.44.55,1.02.92,1.64,1.22,1.24.6,2.56.83,3.93.76,1.31-.07,2.54-.4,3.66-1.08.44-.27.85-.59,1.16-1.02.25-.24.4-.54.52-.85.39-.76.46-1.58.34-2.41-.1-.67-.34-1.31-.75-1.85-1.69-2.22-3.95-3.06-6.67-2.58-1.65.29-2.99,1.14-3.97,2.52-.73,1.02-1.05,2.16-.8,3.42.07.34.14.68.35.97.14.3.29.6.54.82h0Zm13.09,1.9c-.12.25-.27.48-.47.68-.08.08-.03.16.03.22.33.28.69.49,1.1.62.51.2,1.05.33,1.57.48.42.13.59.24.6.67,0,.09.02.18.12.23.03.03.05.07.08.1.24.17.48.14.67-.06.02.07,0,.13-.04.2-.13.22-.34.28-.57.31-.08,0-.16,0-.21.08-.16.25-.35.46-.54.69-.06.08-.05.13.02.2.1.1.18.2.26.31.1.15.1.3,0,.46-.1.16-.23.27-.44.28-.18,0-.28-.11-.39-.23-.19-.21-.19-.21-.38-.01-.12.12-.23.25-.38.35-.08.06-.17.17-.2.27-.02.08.09.15.14.23.16.25.1.55-.15.74-.23.17-.49.14-.69-.1-.09-.11-.15-.11-.26-.02-.28.22-.55.47-.89.61-.04-.18-.1-.34-.21-.5-.15-.23-.13-.28.1-.45,1.02-.77,1.99-1.59,2.75-2.64.16-.17.28-.36.39-.56.08-.14,0-.24-.11-.29-.14-.06-.29-.22-.43-.06-.23.27-.47.53-.71.79-.27.26-.52.53-.8.77-.4.35-.79.71-1.19,1.05-.45.39-.95.68-1.46.95-.41.22-.86.33-1.29.51-.7.29-1.44.43-2.18.54-.8.12-1.61.15-2.43.1-.69-.04-1.37-.14-2.04-.3-.88-.2-1.74-.49-2.54-.9-.66-.34-1.28-.75-1.83-1.24-.11-.1-.17-.25-.3-.33-.27-.15-.47-.39-.7-.6-.15-.14-.27-.31-.44-.43-.26-.23-.53-.46-.73-.75-.19-.27-.28-.29-.57-.12-.1.06-.14.13-.08.24.09.17.18.34.32.48.39.54.83,1.04,1.31,1.5.52.5,1.07.97,1.67,1.38.1.07.12.13.05.24-.12.19-.23.38-.28.6-.07,0-.12-.04-.18-.07-.25-.14-.46-.33-.69-.5-.12-.09-.21-.1-.3.04-.08.12-.2.16-.33.16-.24,0-.4-.12-.51-.32-.12-.21-.09-.4.06-.58.12-.14.1-.24-.03-.35-.15-.13-.29-.28-.43-.42-.19-.19-.19-.2-.38,0-.24.25-.5.29-.74.09-.24-.2-.25-.49-.06-.76.08-.11.29-.16.25-.32-.03-.13-.16-.25-.25-.37-.01-.02-.03-.04-.04-.06-.02-.03-.03-.07-.05-.1-.11-.16-.2-.32-.45-.3-.25.02-.41-.15-.5-.39.53.15.74.02.81-.55.03-.25.19-.38.4-.45.27-.09.54-.16.81-.24.34-.1.7-.19,1.02-.36.42-.08.75-.31,1.07-.57.06-.05.03-.08,0-.13-.12-.17-.24-.34-.37-.51-.1-.13-.06-.33-.21-.45.04,0,.05-.02.06-.06.05-.2.2-.3.38-.33.2-.03.35.08.45.24.07.11.14.22.2.33.11.2.17.21.32.04.29-.32.46-.71.59-1.11.03-.07.07-.15.02-.24-.1-.16-.2-.32-.3-.48-.05-.09-.1-.09-.19-.03-.19.12-.37.24-.57.33-.66.29-1.34.51-2.03.7-.48.08-.96.18-1.44.29-.54.13-1.09.24-1.62.4-.32.1-.54.29-.62.62-.26.06-.52.06-.78.13-.16.04-.13.11-.09.21.4.98.85,1.93,1.46,2.8.24.34.46.7.76,1,.77,1.01,1.67,1.88,2.68,2.64,1.69,1.27,3.56,2.16,5.64,2.59,1.11.23,2.22.38,3.35.33.02,0,.04,0,.06,0,.91-.02,1.81-.14,2.7-.32.63-.13,1.26-.29,1.87-.51.04-.01.09-.02.13-.04.94-.38,1.86-.81,2.72-1.37,1.51-.98,2.78-2.22,3.89-3.62.38-.48.7-1,1.01-1.53.18-.31.38-.62.5-.97.15-.34.3-.68.45-1.02.05-.11.02-.17-.11-.2-.25-.07-.52-.07-.77-.13-.04-.12-.09-.22-.16-.32-.18-.24-.45-.3-.7-.37-.49-.13-.98-.24-1.48-.35-.5-.11-1-.2-1.5-.29-.03-.01-.06-.03-.09-.04-.82-.23-1.63-.5-2.37-.95-.08-.05-.12-.01-.16.04-.38.43-.39.51-.14,1.04.13.27.26.54.46.76.1.11.19.12.28-.02.07-.11.14-.22.21-.33.12-.18.25-.33.5-.26.15.04.24.16.34.27,0,.11-.01.21-.02.32ZM11.75,5c-.5.14-.97.35-1.41.63-.34.22-.6.52-.72.92-.21.73-.2,1.45.1,2.15.28.65.86,1.09,1.25,1.67.05.07.1.05.17,0,.23-.15.46-.29.69-.44.55-.28,1.11-.53,1.71-.67.11-.03.08-.1.06-.17-.28-1.4-.34-2.79.05-4.18.03-.12.16-.26.08-.36-.08-.1-.23,0-.36.02-.56.07-1.1.19-1.62.42Zm16.32,13.99c.43.17.85.24,1.25.35.09.02.11-.04.13-.11.04-.16.07-.32.11-.47.25-.92.33-1.86.39-2.8.06-1.04-.04-2.07-.2-3.1-.11-.73-.3-1.43-.56-2.12-.05-.13-.1-.15-.23-.1-.5.2-1,.39-1.51.58-.07.03-.14.05-.12.15.02.1.1.06.16.06.27,0,.54-.03.82,0,.65.09.94.58.65,1.16-.49,1.02-1.2,1.85-2.2,2.42-.15.09-.33.14-.47.28.18.1.34.19.5.28.51.29.94.68,1.34,1.11.33.36.66.72.9,1.15.25.45.05.9-.44,1.04-.16.05-.33.08-.53.12Zm-23.51-3.7c-.15-.12-.32-.16-.47-.25-.57-.32-1.05-.74-1.44-1.26-.31-.4-.61-.81-.79-1.29-.2-.53.18-.99.66-1.03.29-.03.57,0,.86,0,.05,0,.12.02.13-.07,0-.08-.01-.13-.1-.16-.44-.16-.87-.33-1.31-.49q-.41-.16-.54.27c-.55,1.81-.76,3.66-.6,5.55.07.9.24,1.78.47,2.66.03.12.08.16.2.13.36-.1.73-.19,1.09-.28.04,0,.1,0,.09-.07-.19-.05-.39-.08-.58-.14-.38-.13-.56-.5-.44-.89.06-.18.16-.34.27-.49.58-.76,1.23-1.44,2.05-1.94.14-.09.31-.13.45-.24Zm.88-7.41c-.1,0-.19,0-.29,0-.09,0-.13.03-.1.13.19.88.54,1.69,1.13,2.38.15.17.26.17.4,0,.15-.17.3-.21.48-.11.17.09.23.25.17.46-.1.35.07.6.43.64.09,0,.14,0,.19-.09.12-.23.27-.3.47-.24.19.06.3.24.26.46-.02.12.02.17.12.2.17.05.35.09.52.17.16.08.27.04.38-.08.22-.26.44-.51.67-.76.05-.06.06-.1,0-.16-.55-.7-1.09-1.39-1.83-1.92-.9-.64-1.89-1.01-2.99-1.09Zm18.08,2.69c0-.17.14-.24.26-.3.13-.06.26-.04.35.07.21.28.29.24.53,0,.04-.05.09-.09.13-.14.57-.62.8-1.39,1.01-2.18.03-.12-.03-.12-.12-.13-.34-.02-.67.02-1,.1-1.78.39-3.09,1.46-4.12,2.91-.05.06-.06.1,0,.16.25.23.47.5.68.77.06.08.13.12.23.09.22-.07.45-.14.67-.2.1-.03.11-.08.09-.17-.05-.22.03-.39.2-.46.19-.08.4,0,.52.2.03.06.06.12.13.13.33.02.6-.35.48-.65-.02-.06-.06-.12-.05-.19Zm-8.11-1.53s0,0,0,0c.26,0,.52-.01.78,0,.12,0,.17,0,.18-.12,0-.08.04-.15.05-.23.14-.68.19-1.37.17-2.07-.03-1.04-.29-2.01-.97-2.83-.17-.21-.26-.21-.43,0-.3.36-.52.76-.66,1.2-.43,1.3-.33,2.62-.07,3.94.02.09.06.11.15.11.27,0,.53,0,.8,0Zm-12.21,3.22c-.1,0-.19,0-.29,0-.14,0-.2.03-.11.17.1.16.2.32.3.48.81,1.29,2.02,1.85,3.49,1.86.55,0,1.1.02,1.65-.02.12,0,.17-.04.18-.16.03-.29.09-.58.19-.85.05-.14,0-.19-.14-.21-.94-.18-1.85-.5-2.76-.78-.83-.26-1.65-.49-2.52-.5Zm24.39,0c-.25-.01-.49.02-.74.05-.38.06-.75.15-1.12.25-1.15.32-2.26.76-3.44.98-.12.02-.11.1-.08.17.09.24.11.5.16.75.05.3.06.3.37.29.03,0,.05,0,.08,0,.3.02.6.04.89.01.31-.03.62,0,.93-.03.3-.03.59-.06.87-.14,1.18-.32,1.93-1.16,2.53-2.15.08-.13.06-.2-.12-.19-.11.01-.22,0-.33,0Zm-10.43,13.94c-.26-.23-.49-.47-.64-.76-.3-.57-.48-1.18-.67-1.79-.05-.16-.1-.29-.31-.25-.09.02-.2.01-.29,0-.16-.02-.22.06-.26.2-.11.37-.22.73-.35,1.09-.2.55-.43,1.09-.93,1.45-.02.02-.05.04-.02.1,1.15.09,2.31.1,3.47-.03Zm4.94-19.52c.08.42.12.85.06,1.27,0,.04-.03.1.02.12.05.03.08-.02.12-.04.21-.13.41-.27.65-.35.14-.05.13-.12.04-.21-.23-.24-.44-.49-.69-.7-.05-.04-.11-.09-.19-.09Zm-13.41-.02c-.35.25-.58.58-.85.86-.07.07-.02.11.05.14.22.12.44.24.66.36.09.05.13.04.12-.07-.04-.42-.04-.84.02-1.29Z"/>
    <path class="cls-1" d="m21.2,16.85c.03-.34.09-.68.08-1.02-.02-.91-.25-1.74-.82-2.46-.54-.67-1.21-1.07-2.09-1.05-.66.01-1.21.26-1.61.79-.25.33-.51.63-.94.7-.59.1-1.12,0-1.53-.48-.22-.26-.43-.53-.72-.7-.69-.4-1.41-.42-2.13-.11-.7.3-1.14.88-1.46,1.55-.37.77-.52,1.59-.38,2.44.02.14.07.28.11.41-.21-.29-.29-.63-.35-.97-.25-1.26.07-2.39.8-3.42.98-1.38,2.33-2.23,3.97-2.52,2.72-.47,4.98.36,6.67,2.58.41.54.65,1.18.75,1.85.13.83.06,1.65-.34,2.41Zm-6.37-6.21c-.4-.22-.74-.04-.79.41-.02.2.02.39.09.57.3.73,1.18.97,1.8.75.62-.22.95-.74.88-1.37-.04-.36-.32-.54-.65-.42-.04.01-.09.03-.13.04-.27-.09-.55-.02-.83-.03-.12,0-.25-.03-.36.05Zm-1.96.4c-.21,0-.35.12-.36.33,0,.21.11.36.32.36.21,0,.38-.16.39-.35,0-.2-.14-.33-.35-.33Zm5.09,0c-.19,0-.32.14-.32.34,0,.21.13.37.32.37.2,0,.36-.16.36-.35,0-.2-.17-.35-.36-.35Z"/>
    <path class="cls-7" d="m15.9,2.01c-.12-.21-.28-.33-.53-.3-.19.02-.35.09-.42.28-.28-.15-.56-.26-.83.01-.06-.07-.14-.04-.22-.04-.21.02-.43.03-.64.06-.36.05-.72.11-1.08.16-.11.01-.18.09-.28.12-.8.22-1.58.51-2.33.87-.13.06-.29.11-.36.26-.41,0-.54.08-.68.45-.07-.04-.13-.01-.18.03-.22.16-.47.28-.67.47-.1.09-.16.09-.25-.03-.13-.17-.31-.25-.53-.19-.2.06-.39.3-.4.51,0,.11.05.2.12.28.13.13.09.22-.04.33-.24.22-.47.45-.7.68-.08.08-.13.1-.24.02-.22-.17-.4-.17-.6-.03-.19.13-.27.35-.21.56.04.14.16.23.25.34.05.06.11.12.18.19-.23.03-.44,0-.64.06-.28.08-.47.29-.5.58-.02.22.01.44.07.65.02.07.07.15,0,.2-.05.04-.11-.04-.17-.07-.24-.14-.4-.14-.57,0-.18.15-.23.36-.13.6.03.09.11.14.17.2-.22.23-.35.51-.49.78-.27-.14-.54-.28-.81-.42-.1-.05-.11-.1-.06-.2,1.06-2.23,2.56-4.11,4.52-5.61,1.52-1.17,3.21-2.01,5.07-2.47.9-.23,1.82-.35,2.75-.41,1.49-.09,2.96.03,4.42.35.45.1.89.24,1.33.38.04.01.06.04.1.06-.13.29-.26.58-.39.87-.08-.02-.15-.03-.22-.06-.35-.16-.73-.27-1.1-.36-.56-.15-1.16-.15-1.74-.22-.06,0-.13,0-.17.07-.25-.27-.56-.28-.83-.02Z"/>
    <path class="cls-9" d="m14.81,22.54c-.39.09-.53.4-.62.75-.13.48-.27.96-.47,1.41-.16.35-.36.67-.69.89-.11.08-.23.13-.38.12-.21-.01-.26-.11-.15-.29.06-.1.14-.18.2-.29.05-.09.11-.19.07-.31.08-.07.13-.16.18-.25.35-.76.57-1.56.68-2.39.08-.58-.16-.98-.66-1.26-.17-.09-.36-.1-.53-.18.02-.15.12-.27.16-.41.03-.1.11-.07.17-.06.21.05.42.11.64.16.39.1.8.13,1.2.17,1.14.11,2.27-.01,3.37-.32.19-.05.32-.05.35.19.01.08.08.15.08.24-.05.05-.11.07-.17.08-.58.11-1,.6-1,1.19,0,.62.15,1.22.36,1.8.13.37.27.74.48,1.08.02.16.09.29.18.42.04.06.09.13.12.2.07.13.03.21-.12.23-.23.03-.41-.08-.58-.22-.35-.3-.52-.7-.67-1.12-.13-.38-.25-.77-.37-1.16-.09-.32-.26-.57-.6-.68,0-.16.03-.31.02-.47-.03-.42-.49-.68-.87-.5-.34.17-.47.49-.38.98Z"/>
    <path class="cls-7" d="m12.02,28.44c.2.17.43.17.66.11.18.14.42.12.63.17.26.05.53.12.8.09.22.19.47.18.73.16.35.1.72.04,1.07.06,0,.28-.13.54-.19.81-1.13.04-2.25-.1-3.35-.33-2.08-.43-3.95-1.32-5.64-2.59-1.01-.76-1.91-1.63-2.68-2.64.28-.28.53-.59.86-.82.01.02.03.04.04.06.09.12.21.23.25.37.04.16-.17.2-.25.32-.19.27-.17.57.06.76.24.2.49.17.74-.09.19-.2.19-.2.38,0,.14.14.28.29.43.42.14.12.15.21.03.35-.14.17-.18.37-.06.58.12.2.27.32.51.32.14,0,.26-.04.33-.16.09-.14.18-.12.3-.04.23.17.44.36.69.5.06.03.11.08.18.07.13.34.35.47.71.43.06.04.12.08.18.11.75.43,1.56.69,2.38.95.04.01.1.06.14,0,0,0,0,0,0,0-.02.06.02.04.05.05Z"/>
    <path class="cls-7" d="m28.07,18.99c.2-.05.37-.08.53-.12.49-.14.69-.59.44-1.04-.24-.43-.57-.79-.9-1.15-.4-.43-.83-.82-1.34-1.11-.16-.09-.32-.18-.5-.28.13-.14.31-.19.47-.28.99-.57,1.7-1.4,2.2-2.42.29-.59,0-1.08-.65-1.16-.27-.04-.54,0-.82,0-.06,0-.14.04-.16-.06-.02-.09.05-.12.12-.15.5-.19,1.01-.38,1.51-.58.13-.05.18-.03.23.1.25.69.44,1.39.56,2.12.16,1.03.26,2.06.2,3.1-.06.94-.14,1.89-.39,2.8-.04.16-.08.31-.11.47-.02.07-.04.13-.13.11-.41-.11-.82-.19-1.25-.35Zm.16-3.99c-.07-.04-.13-.09-.2-.12-.2-.09-.39-.02-.51.16-.1.16-.06.38.09.51.19.17.37.15.62-.05.01.14,0,.28.01.42.02.15.35.28.52.25.19-.03.33-.18.33-.4,0-.32,0-.65,0-.97,0-.23-.17-.37-.4-.39-.26-.01-.39.09-.43.34-.01.08-.02.17-.04.25Z"/>
    <path class="cls-7" d="m4.57,15.29c-.14.11-.31.15-.45.24-.82.51-1.47,1.19-2.05,1.94-.11.15-.22.31-.27.49-.12.39.06.76.44.89.19.06.39.09.58.14,0,.07-.06.06-.09.07-.36.09-.73.18-1.09.28-.12.03-.17,0-.2-.13-.22-.87-.39-1.76-.47-2.66-.16-1.89.05-3.74.6-5.55q.13-.43.54-.27c.44.16.87.34,1.31.49.09.03.11.08.1.16,0,.09-.08.07-.13.07-.29,0-.57-.02-.86,0-.48.04-.86.5-.66,1.03.18.48.48.89.79,1.29.4.52.87.94,1.44,1.26.15.08.33.13.47.25Zm-1.95.19c.12.16.28.22.46.16.15-.05.24-.17.27-.33.03-.17-.05-.3-.19-.4-.16-.12-.33-.08-.55.12,0-.08,0-.15-.02-.23-.06-.24-.24-.37-.49-.35-.22.02-.35.17-.35.43,0,.3,0,.6,0,.89,0,.24.14.37.37.39.26.02.4-.09.46-.31.03-.12.01-.24.02-.36Z"/>
    <path class="cls-1" d="m19.97,2.6c.13-.29.26-.58.39-.87,3.35,1.27,5.92,3.45,7.73,6.53.21.36.38.74.56,1.11.06.12.05.2-.08.26-.25.12-.49.26-.74.39-.03-.06-.06-.11-.09-.17-.11-.2-.19-.41-.37-.56.05-.05.09-.11.14-.16.16-.21.15-.46-.03-.66-.15-.17-.35-.19-.58-.07-.07.04-.13.1-.23.1-.02-.16.03-.3.06-.44.14-.67-.16-1.04-.84-1.04-.02,0-.04,0-.06,0-.05,0-.12.03-.14-.02-.04-.07.05-.09.08-.13.06-.07.13-.13.18-.2.18-.22.17-.45-.02-.67-.19-.21-.41-.25-.64-.08-.17.13-.24.07-.36-.05-.21-.22-.41-.45-.65-.64-.1-.08-.12-.14-.02-.25.22-.25.2-.51-.03-.72-.26-.23-.52-.23-.75.03-.1.11-.16.11-.26.02-.14-.12-.3-.23-.46-.33-.11-.07-.23-.15-.37-.15-.15-.26-.34-.48-.69-.43-.04-.09-.13-.12-.2-.16-.48-.28-1-.47-1.52-.67Z"/>
    <path class="cls-7" d="m21.63,27.32c.34.04.54-.07.7-.4.34-.14.61-.39.89-.61.12-.09.17-.09.26.02.2.24.46.27.69.1.25-.19.31-.49.15-.74-.05-.08-.16-.15-.14-.23.03-.1.12-.22.2-.27.14-.1.26-.23.38-.35.19-.2.19-.19.38.01.11.12.21.23.39.23.21,0,.33-.12.44-.28.1-.15.1-.31,0-.46-.08-.11-.16-.22-.26-.31-.07-.07-.08-.12-.02-.2.18-.23.38-.44.54-.69.05-.08.13-.07.21-.08.23-.03.44-.09.57-.31.04-.07.06-.13.04-.2.19-.23.12-.5.12-.76.35.01.43-.04.56-.38.06-.07.12-.01.17.01.15.07.31.11.48.1.08,0,.14-.11.23-.05-.12.34-.31.65-.5.97-.31.53-.63,1.05-1.01,1.53-1.11,1.41-2.38,2.64-3.89,3.62-.86.56-1.78.98-2.72,1.37-.04.02-.09.02-.13.04-.15-.29-.25-.59-.37-.9.29-.12.59-.23.87-.36.26-.13.55-.23.77-.43Z"/>
    <path class="cls-9" d="m18.95,9.84c-.37-.12-.71-.31-1.09-.4-.13-.03-.25-.07-.37-.11q-.26-.08-.22-.34c.14-.81.21-1.63.18-2.45-.02-.64-.11-1.26-.34-1.86-.05-.14-.04-.15.12-.14.5.04.98.16,1.45.3.17.05.36.1.52.2.01.02.02.04.05.03,0,0,0,0,0,0-.02.08.05.13.09.19.12.19.25.37.33.59.11.3.14.61.17.93-.21.27-.19.53.03.78-.06.25-.07.51-.07.77-.11.16-.19.34-.19.54-.15.37-.37.7-.65.98Zm.02-3.46c0-.26-.23-.5-.5-.5-.25,0-.46.22-.46.48,0,.28.18.48.45.48.29,0,.51-.19.51-.47Zm-.02,1.73c0-.27-.21-.48-.49-.48-.25,0-.45.21-.45.48,0,.27.2.47.46.47.26,0,.48-.21.48-.48Z"/>
    <path class="cls-7" d="m11.75,5c.52-.23,1.06-.35,1.62-.42.12-.02.28-.12.36-.02.08.1-.04.24-.08.36-.39,1.39-.33,2.79-.05,4.18.01.07.04.14-.06.17-.6.15-1.16.39-1.71.67-.21-.29-.39-.59-.52-.93-.02-.06-.05-.12-.11-.16.03-.19-.03-.35-.14-.49,0-.29-.04-.57-.07-.86.19-.24.2-.48.02-.73.05-.05.04-.11.04-.16,0-.58.23-1.07.62-1.49.03-.04.09-.06.08-.13Zm1.09,1.4c0-.26-.21-.5-.47-.5-.28,0-.49.2-.49.49,0,.27.19.48.45.49.29,0,.5-.19.51-.47Zm-.46,1.25c-.29,0-.48.2-.48.5,0,.25.22.45.48.45.27,0,.46-.2.46-.49,0-.28-.19-.46-.46-.46Z"/>
    <path class="cls-9" d="m5.45,7.88c1.1.08,2.09.45,2.99,1.09.74.52,1.28,1.22,1.83,1.92.05.07.04.11,0,.16-.22.25-.45.5-.67.76-.11.13-.22.16-.38.08-.16-.08-.34-.11-.52-.17-.1-.03-.14-.08-.12-.2.04-.22-.07-.41-.26-.46-.2-.06-.35.01-.47.24-.05.09-.1.1-.19.09-.36-.04-.52-.29-.43-.64.06-.21,0-.37-.17-.46-.18-.1-.33-.06-.48.11-.15.17-.26.17-.4,0-.6-.69-.94-1.5-1.13-2.38-.02-.1.01-.13.1-.13.1,0,.19,0,.29,0Zm3.46,2.33c-.26,0-.43.17-.43.42,0,.23.2.42.42.42.25,0,.44-.19.43-.45,0-.24-.18-.4-.43-.4Zm-1.82-.51c0,.24.19.44.42.45.23,0,.44-.2.44-.43,0-.22-.21-.44-.44-.44-.23,0-.42.19-.43.42Zm-.53-.87c0-.21-.19-.4-.41-.4-.22,0-.38.17-.38.42,0,.21.16.37.38.38.22,0,.41-.18.41-.4Z"/>
    <path class="cls-3" d="m23.53,10.57c0,.07.03.13.05.19.13.31-.14.67-.48.65-.08,0-.1-.07-.13-.13-.12-.2-.33-.28-.52-.2-.18.07-.25.24-.2.46.02.09,0,.14-.09.17-.22.06-.45.13-.67.2-.11.03-.18-.01-.23-.09-.21-.27-.42-.54-.68-.77-.06-.06-.05-.1,0-.16,1.04-1.45,2.34-2.51,4.12-2.91.33-.07.66-.11,1-.1.09,0,.15,0,.12.13-.21.79-.44,1.56-1.01,2.18-.04.05-.09.09-.13.14-.24.25-.32.28-.53,0-.09-.12-.22-.13-.35-.07-.13.06-.25.14-.26.3Zm-1.56-.37c-.3,0-.43.09-.46.41-.02.22.19.44.4.45.24.01.45-.16.46-.4.01-.26-.15-.45-.4-.46Zm.94-.49c0,.24.19.44.42.44.22,0,.44-.22.44-.45,0-.21-.19-.41-.41-.41-.25,0-.45.18-.45.42Zm2.19-.87c0-.23-.19-.42-.42-.42-.22,0-.4.18-.4.41,0,.24.17.4.41.39.23,0,.41-.17.41-.38Z"/>
    <path class="cls-7" d="m15.42,9.04c-.27,0-.53,0-.8,0-.08,0-.13-.02-.15-.11-.26-1.32-.36-2.64.07-3.94.15-.44.37-.84.66-1.2.17-.21.25-.21.43,0,.68.82.94,1.79.97,2.83.02.69-.02,1.39-.17,2.07-.02.08-.04.15-.05.23-.01.12-.07.13-.18.12-.26-.02-.52,0-.78,0,0,0,0,0,0,0Zm.46-2.53c0-.26-.22-.46-.48-.45-.25,0-.44.21-.44.47,0,.27.2.47.46.47.26,0,.46-.22.45-.48Zm-.46,1.98c.25,0,.44-.19.44-.45,0-.24-.21-.46-.44-.46-.24,0-.45.22-.45.47,0,.25.19.43.45.43Zm.45-3.46c0-.24-.2-.44-.42-.44-.26,0-.45.19-.45.45,0,.25.19.44.44.44.25,0,.43-.2.43-.45Z"/>
    <path class="cls-3" d="m3.21,12.27c.87.01,1.7.24,2.52.5.91.28,1.82.6,2.76.78.14.03.19.07.14.21-.1.27-.16.56-.19.85-.01.12-.06.15-.18.16-.55.04-1.1.02-1.65.02-1.48,0-2.69-.57-3.49-1.86-.1-.16-.19-.32-.3-.48-.1-.15-.03-.18.11-.17.1,0,.19,0,.29,0Zm2.99,2.11c.28,0,.47-.17.47-.43,0-.22-.22-.44-.45-.45-.22,0-.43.2-.43.44,0,.26.17.44.42.44Zm-1.54-1.39c-.27,0-.45.17-.44.43,0,.23.19.42.42.42.24,0,.45-.19.45-.42,0-.23-.19-.43-.43-.43Z"/>
    <path class="cls-3" d="m27.6,12.27c.11,0,.22,0,.33,0,.17-.02.2.06.12.19-.61,1-1.35,1.84-2.53,2.15-.29.08-.58.11-.87.14-.31.03-.62,0-.93.03-.28.03-.59,0-.89-.01-.03,0-.05,0-.08,0-.31,0-.31,0-.37-.29-.04-.25-.07-.51-.16-.75-.03-.07-.03-.15.08-.17,1.18-.22,2.29-.66,3.44-.98.37-.1.74-.2,1.12-.25.24-.04.49-.07.74-.05Zm-2.96,1.26c-.25,0-.44.16-.45.41,0,.24.18.44.41.45.25,0,.45-.18.46-.42,0-.25-.17-.43-.42-.43Zm1.14-.14c0,.23.17.42.39.43.27,0,.45-.17.46-.44,0-.21-.19-.4-.41-.41-.25,0-.43.17-.43.42Z"/>
    <path class="cls-7" d="m19.76,19.59c.25-.17.51-.33.74-.54.11-.1.16-.08.22.05.56,1.32,1.53,2.23,2.83,2.8.11.05.23.09.35.13.14.04.13.08.04.18-.45.49-1.01.63-1.64.56-1.36-.16-2.28-.92-2.9-2.11.23-.07.45-.18.65-.31.23-.02.38-.16.38-.36,0-.17-.1-.27-.26-.32-.17-.04-.28.05-.38.17-.02-.07-.04-.15-.06-.22h0s0,0,0,0c.03,0,.06.03.05-.03Zm2,1.9c-.2,0-.36.16-.36.36,0,.19.17.36.36.36.18,0,.36-.18.36-.36,0-.19-.16-.35-.36-.35Zm-.63-.52c0-.22-.15-.37-.36-.37-.19,0-.34.16-.34.35,0,.19.18.38.36.39.18,0,.34-.16.34-.37Z"/>
    <path class="cls-3" d="m19.79,8.32c0-.26.01-.52.07-.77.16.03.32.07.48,0,.24-.11.33-.43.22-.66-.06-.12-.17-.2-.3-.23-.16-.03-.29.04-.43.1-.03-.31-.06-.63-.17-.93-.08-.21-.21-.4-.33-.59-.04-.06-.11-.1-.09-.19.23,0,.41.14.61.22.47.19.91.43,1.19.88.3.47.31.99.32,1.52.02.78-.37,1.38-.86,1.93-.2.23-.4.46-.57.71-.07.1-.12.1-.22.04-.25-.18-.52-.35-.77-.52.28-.29.5-.61.65-.98.06.09.12.18.22.24.2.13.43.11.61-.06.15-.14.19-.37.09-.55-.1-.2-.31-.29-.54-.24-.06.01-.12.04-.18.06Z"/>
    <path class="cls-3" d="m11.75,5c.01.06-.04.09-.08.13-.4.42-.62.91-.62,1.49,0,.06,0,.12-.04.16-.29-.18-.57-.13-.71.11-.11.19-.08.44.06.58.17.16.37.18.62.04.03.28.08.57.07.86-.03-.02-.07-.04-.1-.06-.17-.08-.34-.08-.49.03-.16.11-.2.29-.16.47.03.18.13.32.32.37.22.06.39-.03.57-.32.06.03.09.1.11.16.12.34.31.64.52.93-.23.15-.46.29-.69.44-.06.04-.12.06-.17,0-.39-.58-.97-1.02-1.25-1.67-.3-.7-.31-1.43-.1-2.15.12-.4.38-.69.72-.92.44-.28.91-.49,1.41-.63Z"/>
    <path class="cls-1" d="m19.99,28.11c.11.3.22.61.37.9-.61.22-1.23.38-1.87.51-.89.18-1.79.3-2.7.32-.02,0-.04,0-.06,0,.06-.27.18-.53.19-.81.03-.03.09-.03.1-.08.26.09.51.09.72-.13.02,0,.05.02.07.02.44-.03.86-.14,1.29-.21.16-.03.07-.13.02-.17-.11-.08-.09-.17-.04-.27.03,0,.06-.01.09-.02-.05.1.18.15.04.27-.05.05.04.1.08.13.1.07.39.03.48-.07.04-.05.06-.13.15-.07.36-.11.71-.21,1.07-.32Z"/>
    <path class="cls-1" d="m2.7,20.14c.02.12,0,.25.06.37.09.24.25.4.52.41-.07.15-.09.3-.07.47.04.32.23.46.55.4,0,.07-.01.14-.02.21-.04.24.01.45.17.63,0,0,0,.01,0,.02,0,0,.01.02.02.03,0,0,0,0,0,0,.09.23.25.4.5.39.26-.02.35.14.45.3.02.03.04.07.05.1-.33.23-.59.53-.86.82-.3-.3-.52-.66-.76-1-.6-.87-1.06-1.82-1.46-2.8-.04-.1-.07-.16.09-.21.26-.07.52-.07.78-.13Z"/>
    <path class="cls-9" d="m26.97,10.31c-.45,0-.69.29-.59.7.13.52.13.53-.39.64-.89.18-1.73.53-2.6.78-.45.13-.9.26-1.35.38-.05.02-.14.06-.17-.03-.03-.1.08-.08.13-.09.95-.25,1.85-.6,2.63-1.21.72-.57,1.35-1.22,1.7-2.1.13-.34.23-.34.47-.05.05.07.05.15.12.2q-.24.23-.09.51c.04.09.08.17.13.26Z"/>
    <path class="cls-1" d="m3.97,9.57c.04-.25.25-.41.36-.66.22.55.47,1.05.8,1.5.47.65,1.08,1.14,1.77,1.54.61.36,1.27.57,1.94.75.04.01.15-.03.12.08-.03.1-.11.04-.16.03-.68-.18-1.36-.39-2.03-.6-.74-.23-1.46-.5-2.22-.62-.12-.02-.15-.07-.14-.18.02-.17.04-.35.09-.52.05-.18-.02-.37-.18-.45-.13-.07-.25-.15-.41-.13-.03-.1.04-.17.09-.24.11-.18.17-.35-.03-.51Z"/>
    <path class="cls-7" d="m8.63,16.6c-.03-.09-.05-.19-.07-.28-.03-.19-.07-.37-.08-.56-.01-.12-.06-.15-.17-.15-.56,0-1.12,0-1.69.03-1.68.08-2.86.97-3.8,2.28-.1.14-.07.2.1.24.28.07.58.08.86.09.64.01,1.27-.05,1.9-.19h0c.11-.02.22-.05.32-.07.85-.17,1.67-.44,2.42-.9.29-.18.3-.18.21-.5Zm-3.28.85c0,.16-.1.25-.23.31-.15.06-.28,0-.4-.09-.12-.1-.06-.82.07-.91.13-.09.25-.08.38-.01.12.06.17.15.16.28,0,.06,0,.12,0,.17,0,0,0,0,.01,0,0,.08,0,.17,0,.25Zm.3.35s-.06-.04-.1-.07c.07-.01.08.03.1.07h0Zm.95-.45c-.13.1-.3.05-.44.03-.16-.26-.1-.54-.06-.8.02-.15.18-.2.33-.17.18.03.29.13.29.33,0,0,0,0,0,.02,0,.06,0,.11,0,.17,0,.15,0,.33-.12.44Zm1.06-.65c.05.08,0,.1-.07.09-.01.03-.03.04-.06.04-.1.03-.2.05-.31.08-.03,0-.06,0-.08-.04,0,0,0,0,0,0,0,0,0,0,0,0-.14-.15-.24-.31-.16-.52.06-.17.24-.26.4-.22.18.04.32.22.3.4,0,.06-.03.13-.05.19.05.01.09.01.12,0-.03.02-.07.02-.12,0h0Zm-.07.09s0,0,0,0c0,0,0,0,0,0h0Z"/>
    <g>
      <path class="cls-7" d="m28.02,17.86c-.23-.32-.5-.61-.78-.89-.76-.74-1.66-1.19-2.71-1.3-.57-.06-1.15-.05-1.72-.05-.12,0-.26-.02-.36.03-.14.07-.04.24-.08.35-.02.05-.02.11-.03.17-.06.22-.12.43-.18.65-.02.08,0,.13.08.17.6.39,1.24.67,1.94.84.01-.03.02-.06.06-.06.05,0,.04.06.04.09.02,0,.04.01.06.02.08,0,.17-.03.23.04.1,0,.07-.08.08-.14.13.05.07.13.06.2.04,0,.08.02.11.02.69.17,1.38.27,2.09.26.33,0,.66-.03.98-.08.25-.04.27-.11.12-.32Zm-4.52-1.73c.23,0,.38.15.38.37,0,.2-.2.4-.38.4-.2,0-.39-.19-.38-.41,0-.22.15-.37.38-.36Zm-.25,1.12s-.01-.02-.02-.02c-.15-.02-.1-.09-.04-.16,0,0,0,0,0,0,.18,0,.02.11.04.16,0,0,.01.02.02.03Zm.1-.26h.01s0,0,0,0h0Zm1.08.76s0-.02.01-.03c0,0,.01.01.02.02,0,0-.02.02-.03,0Zm-.33-.44c-.04-.2-.02-.4,0-.6.02-.2.14-.3.31-.3.21,0,.29.09.31.31.01.17-.01.33,0,.5.01.11-.13.14-.18.23-.17,0-.31-.06-.44-.15Zm2.1.17c0,.2-.14.34-.32.34-.19,0-.36-.16-.36-.34,0-.15,0-.3,0-.45,0-.18.14-.3.32-.3.21,0,.34.1.35.3,0,.08,0,.17,0,.25h0c0,.06,0,.13,0,.19Z"/>
      <polygon class="cls-7" points="24.57 17.92 24.57 17.92 24.57 17.92 24.57 17.92"/>
    </g>
    <path class="cls-1" d="m28.12,20.53c.07-.12.04-.26.05-.4.25.07.52.07.77.13.13.03.15.09.11.2-.15.34-.3.68-.45,1.02-.09-.06-.15.04-.23.05-.17.01-.33-.03-.48-.1-.05-.02-.11-.08-.17-.01,0-.17-.05-.34-.12-.49.25-.03.42-.18.52-.4Z"/>
    <path class="cls-7" d="m14.81,22.54c-.09-.49.04-.82.38-.98.38-.18.85.08.87.5,0,.15-.01.31-.02.47-.41.04-.82.02-1.23.02Z"/>
    <path class="cls-7" d="m21.45,23.54c-.31-.16-.62-.29-.94-.43-.66-.39-1.21-.91-1.62-1.56-.17-.27-.32-.56-.48-.84-.05.05-.11.07-.17.08-.58.11-1,.6-1,1.19,0,.62.15,1.22.36,1.8.13.37.27.74.48,1.08.05-.21.19-.32.39-.36.19-.03.33.06.44.22.13.18.25.38.41.54.19.18.45.18.63.01.17-.16.18-.38.01-.59-.09-.12-.21-.22-.29-.33-.17-.22-.14-.46.07-.61.21-.16.49-.13.66.08.21.26.41.53.54.85,0,.04.02.09.03.13.04.23.22.32.44.23.33-.13.44-.41.47-.74.03-.34-.11-.59-.41-.75Zm-3.19-1.11c-.18,0-.32-.14-.32-.33,0-.19.14-.35.31-.35.17,0,.34.16.35.33,0,.18-.16.35-.34.35Zm.62.98c-.18,0-.33-.16-.33-.36,0-.19.14-.34.33-.34.2,0,.36.16.36.36,0,.18-.18.35-.36.34Z"/>
    <path class="cls-7" d="m12.96,20.92c-.17-.09-.36-.1-.53-.18-.07.06-.08.14-.12.22-.53,1.04-1.29,1.84-2.37,2.32,0,.05-.03.07-.08.06-.2.04-.38.13-.54.25-.54.42-.51,1.12.11,1.44.27.14.43.05.47-.25,0-.05.02-.1.03-.15.01-.03.03-.06.04-.09.14-.29.31-.57.56-.78.2-.17.45-.14.63.04.16.17.16.42-.01.61-.08.09-.16.17-.24.25-.17.18-.16.45.01.61.19.18.44.18.62,0,.15-.15.24-.33.37-.5.27-.36.63-.33.84.07.08-.07.13-.16.18-.25.35-.76.57-1.56.68-2.39.08-.58-.16-.98-.66-1.26Zm-1.03,2.5c-.2-.01-.31-.15-.31-.37,0-.2.16-.35.35-.34.18.01.35.19.34.36,0,.2-.18.36-.38.35Zm.64-.99c-.18,0-.32-.14-.32-.34,0-.19.14-.35.32-.35.18,0,.33.15.34.34,0,.2-.14.35-.33.35Z"/>
    <path class="cls-2" d="m26.97,10.31c-.04-.09-.08-.18-.13-.26q-.15-.28.09-.51c.14-.08.28-.15.42-.23.18.15.27.36.37.56.03.06.06.11.09.17-.15.18-.38.24-.57.35-.1.06-.19-.03-.28-.08Z"/>
    <path class="cls-2" d="m3.97,9.57c.21.16.14.33.03.51-.05.07-.12.14-.09.24-.12.09-.24.07-.38,0-.18-.08-.34-.18-.5-.28.14-.27.28-.55.49-.78.17.07.31.17.44.3Z"/>
    <path class="cls-3" d="m22.11,6.69c.08,0,.14.04.19.09.25.22.47.47.69.7.09.09.1.16-.04.21-.23.09-.44.22-.65.35-.04.02-.07.07-.12.04-.05-.03-.03-.08-.02-.12.07-.43.03-.85-.06-1.27Z"/>
    <path class="cls-3" d="m11.66,19.89c-.41-.2-.77-.47-1.16-.71-.04-.04-.07-.07-.11-.11-.15-.14-.17-.13-.25.06-.07.17-.14.33-.23.49-.64,1.1-1.55,1.87-2.74,2.32-.39.15-.39.17-.06.45.46.41,1.02.42,1.58.34,1.29-.18,2.14-.95,2.77-2.04.12-.19.19-.41.29-.61.05-.1.01-.15-.08-.2Zm-2.6,2.31c-.19,0-.33-.16-.33-.36,0-.2.17-.37.36-.36.19,0,.35.18.34.38,0,.2-.17.35-.37.35Zm.99-.87c-.17,0-.34-.16-.34-.35,0-.21.16-.4.35-.39.17,0,.34.18.34.37,0,.2-.16.37-.34.38Zm.41-1.27c-.04-.17.04-.31.2-.4h0s.01,0,.01,0c.01,0,.02-.01.03-.02.19.01.34.09.4.27.06.18-.03.34-.24.44-.2,0-.35-.09-.4-.29Z"/>
    <path class="cls-7" d="m8.7,6.66c-.05.46-.05.88-.02,1.29.01.11-.03.12-.12.07-.22-.12-.44-.24-.66-.36-.07-.03-.12-.07-.05-.14.27-.28.49-.61.85-.86Z"/>
    <path class="cls-3" d="m20.03,20.35c-.2.13-.42.24-.65.31-.13-.18-.2-.39-.28-.59-.03-.08-.03-.15.06-.19.18-.08.36-.17.54-.25.02.07.04.15.06.22-.04.29.03.42.27.51Z"/>
    <path class="cls-8" d="m23.75,7.07s.01-.09.02-.13c0-.04,0-.11.07-.08.03.01.15-.03.08.09-.02.03.01.07.04.07.06,0,.02-.09.08-.09q.06.23-.2.24s0,0,0,0c-.01-.01-.02-.03-.03-.04-.02-.02-.05-.04-.07-.06Z"/>
    <path class="cls-7" d="m24.57,17.92c.1,0,.07-.08.08-.14.13.05.07.13.06.2-.06.01-.1,0-.14-.05Z"/>
    <path class="cls-7" d="m24.16,17.83s.02-.06.06-.06c.05,0,.04.06.04.09-.04-.01-.07-.02-.11-.03Z"/>
    <path class="cls-7" d="m24.33,17.89c.08,0,.17-.03.23.04-.08,0-.16,0-.23-.04Z"/>
    <path class="cls-3" d="m9.94,23.28s-.03.07-.08.06c.01-.04.05-.04.08-.06Z"/>
    <path class="cls-2" d="m10.25,17.73s.05.05.05.09c-.03-.02-.06-.04-.05-.09Z"/>
    <path class="cls-3" d="m19.76,19.59c.02.06-.02.04-.05.03.02-.01.03-.02.05-.03Z"/>
    <path class="cls-3" d="m19.25,5.07s-.04-.01-.05-.03c.02.01.04.02.05.03Z"/>
    <path class="cls-2" d="m23.82,7.13s.02.03.03.04c-.01-.01-.02-.03-.03-.04Z"/>
    <path class="cls-4" d="m13.16,14.53c0,.39-.36.77-.74.78-.45.01-.83-.34-.83-.77,0-.45.33-.81.76-.81.46,0,.8.33.81.8Z"/>
    <path class="cls-4" d="m18.44,13.73c.42-.02.78.29.81.69.03.47-.3.84-.79.87-.4.03-.75-.3-.77-.72-.03-.47.28-.81.75-.84Z"/>
    <path class="cls-4" d="m16.28,16.7c0,.27-.38.41-.55.19-.15-.2,0-.55.27-.51.14.02.28.17.28.31Z"/>
    <path class="cls-4" d="m15.11,16.68c0,.19-.12.33-.28.32-.18,0-.33-.16-.32-.34,0-.14.17-.28.32-.28.15,0,.29.14.28.29Z"/>
    <path class="cls-8" d="m11.3,17.94s.04.04.04.04c-.01,0-.03.03-.05.01-.01-.01,0-.04.01-.06Z"/>
    <path class="cls-8" d="m11.76,18.38s.03-.04.03-.04c.03.02,0,.04,0,.06,0,0-.02-.01-.03-.02Z"/>
    <path class="cls-4" d="m16.02,10.62s.09-.03.13-.04c.34-.12.61.06.65.42.07.64-.26,1.15-.88,1.37-.62.22-1.49-.02-1.8-.75-.08-.18-.11-.37-.09-.57.05-.45.39-.63.79-.41,0,.14,0,.28.01.43.02.33.25.56.57.57.33.01.58-.21.61-.55.01-.15,0-.31,0-.46Z"/>
    <path class="cls-7" d="m16.02,10.62c0,.16.01.31,0,.46-.03.34-.28.56-.61.55-.32-.01-.55-.24-.57-.57,0-.14,0-.28-.01-.43.11-.08.24-.05.36-.05.28,0,.56-.06.83.03Z"/>
    <path class="cls-4" d="m12.87,11.03c.21,0,.35.14.35.33,0,.2-.18.36-.39.35-.2,0-.33-.15-.32-.36,0-.2.15-.33.36-.33Z"/>
    <path class="cls-4" d="m17.96,11.03c.2,0,.36.15.36.35,0,.19-.16.35-.36.35-.18,0-.31-.15-.32-.37,0-.19.13-.33.32-.34Z"/>
    <path class="cls-4" d="m19.99,28.11c-.36.11-.71.21-1.07.32-.05,0-.06-.02-.05-.05.06-.24,0-.46-.04-.7-.02-.1,0-.17.12-.21.71-.21,1.41-.45,2.06-.81.1-.05.16-.03.22.07.12.2.17.45.39.59-.22.2-.5.3-.77.43-.28.13-.58.24-.87.36Z"/>
    <path class="cls-4" d="m11.97,28.39c-.04.07-.1.02-.14,0-.81-.27-1.63-.52-2.38-.95-.06-.04-.12-.07-.18-.11.18-.14.28-.33.36-.54.06-.15.13-.21.3-.12.63.33,1.29.59,1.98.76.07.02.16.05.13.17-.06.26-.08.52-.08.78Z"/>
    <path class="cls-4" d="m18.09,28.18c-.05.1-.06.19.04.27.05.04.14.15-.02.17-.43.07-.86.18-1.29.21-.02,0-.05-.01-.07-.02.04-.25.02-.49.01-.74,0-.15.05-.22.2-.22.3,0,.6-.07.89-.14.13-.03.22-.02.2.16-.02.1.02.2.04.3Z"/>
    <path class="cls-4" d="m14.11,28.81c-.27.03-.54-.03-.8-.09-.21-.04-.44-.03-.63-.17.04-.07.07-.14.11-.21,0,0,0,0,0,0h0s.01-.05.02-.08c0,0,0,0,0,0,0,0,0,0,0,0-.01,0-.03-.02-.04-.03,0-.02.02-.04.03-.06.04-.11.03-.22.03-.34,0-.11.04-.17.17-.14.31.07.63.11.95.15.1.01.14.05.14.16,0,.27,0,.53.01.8Z"/>
    <path class="cls-4" d="m16.02,28.94c-.01.05-.07.05-.1.08-.36-.02-.72.04-1.07-.06.1-.07.13-.17.12-.29,0-.17,0-.35,0-.52,0-.16.06-.24.23-.22.16.02.32,0,.48,0,.14,0,.23.04.22.21-.01.18,0,.36,0,.54,0,.11.03.2.13.26Z"/>
    <path class="cls-1" d="m12.45,28.2c.06-.01.12-.02.18-.03,0,0,0,0,0,0-.13.21-.4.22-.55.04.11-.07.23.1.35,0,0,0,.01-.01.02-.02Z"/>
    <path class="cls-1" d="m18.69,28.4c.04-.12.02-.16-.09-.15.08-.05.12-.19.23-.05.04.05.05.05-.14.2Z"/>
    <path class="cls-1" d="m12.43,28.02c0,.05-.1.08-.1.03,0-.03.03-.05.05-.06.03-.02.04,0,.05.03Z"/>
    <path class="cls-1" d="m12.78,28.17s-.1,0-.15,0c0,0,0,0,0,0,.05-.04.1-.13.15,0,0,0,0,0,0,0Z"/>
    <path class="cls-1" d="m12.43,28.21s-.09-.01-.05-.06c.04-.05.07,0,.07.04,0,0-.01,0-.02.02Z"/>
    <path class="cls-1" d="m12.81,28.18s-.02.04-.03.06c-.05-.03,0-.05,0-.07,0,0,0,0,0,0,.01,0,.02,0,.02.02Z"/>
    <path class="cls-1" d="m12.55,28.4s-.02,0-.03,0c0-.02,0-.03.01-.04,0,.01,0,.02.01.03Z"/>
    <polygon class="cls-1" points="12.34 27.87 12.34 27.88 12.33 27.87 12.34 27.87"/>
    <polygon class="cls-1" points="12.82 28.27 12.83 28.26 12.82 28.27 12.82 28.27"/>
    <polygon class="cls-1" points="12.8 28.33 12.81 28.34 12.8 28.34 12.79 28.34 12.8 28.33"/>
    <path class="cls-4" d="m12.02,28.44s-.07.01-.05-.05c.05-.02.04.02.05.05Z"/>
    <path class="cls-4" d="m12.05,3.13c-.07.12-.21.12-.32.15-.63.17-1.24.39-1.81.7-.22.12-.23.11-.36-.12-.09-.16-.17-.33-.35-.42.07-.15.23-.2.36-.26.75-.36,1.52-.65,2.33-.87.1-.03.18-.1.28-.12.36-.05.72-.11,1.08-.16.21-.03.42-.05.64-.06.07,0,.16-.04.22.04,0,.21-.02.43-.01.64,0,.14-.05.2-.19.2-.31.01-.63.04-.94.1-.23.05-.13-.15-.16-.24-.01-.04-.04-.02-.06-.02-.02-.03-.03-.08-.08-.07.02-.08.01-.06-.07-.07-.08,0-.2.04-.24-.09.03-.02.05-.04.01-.06,0,.02,0,.04,0,.07-.12,0-.22.02-.2.18,0,0-.01.01-.02.02-.07-.06-.11-.06-.14.05-.03.15.02.27.04.41Z"/>
    <path class="cls-4" d="m21.69,3.43c-.2.11-.29.31-.39.5-.06.12-.12.17-.26.09-.64-.32-1.31-.6-2-.79-.14-.04-.23-.1-.22-.26.1-.17.05-.37.09-.55-.09,0-.04.12-.07.08-.12-.12-.18-.02-.27.03-.08.04-.2.03-.23-.09-.05-.18-.15.02-.21-.04.04.06-.16.15.02.2.02,0,.06.07-.02.06-.08-.01-.07.03-.07.08,0,.07,0,.13-.02.19-.16.09-.32-.02-.48-.03-.22-.02-.43-.06-.65-.07-.12,0-.14-.04-.14-.15,0-.22.02-.44-.02-.66.04-.07.1-.08.17-.07.58.06,1.18.07,1.74.22.36.09.74.21,1.1.36.07.03.15.04.22.06.52.19,1.03.39,1.52.67.08.04.17.07.2.16Z"/>
    <path class="cls-4" d="m28.24,15c.01-.08.02-.17.04-.25.04-.25.17-.35.43-.34.24.01.4.15.4.39.01.32.01.65,0,.97,0,.22-.14.37-.33.4-.18.03-.5-.1-.52-.25-.02-.13,0-.28-.01-.42.03-.17.04-.33,0-.5Z"/>
    <path class="cls-2" d="m28.24,15c.04.17.03.33,0,.5-.25.21-.43.22-.62.05-.15-.13-.19-.35-.09-.51.12-.18.3-.24.51-.16.07.03.13.08.2.12Z"/>
    <path class="cls-4" d="m2.62,15.48c0,.12.01.24-.02.36-.06.23-.2.33-.46.31-.23-.02-.37-.15-.37-.39,0-.3,0-.6,0-.89,0-.26.13-.41.35-.43.25-.02.42.11.49.35.02.08,0,.15.02.23-.03.15-.04.3,0,.46Z"/>
    <path class="cls-2" d="m2.62,15.48c-.04-.15-.04-.3,0-.46.22-.2.39-.24.55-.12.13.1.21.23.19.4-.03.16-.12.28-.27.33-.18.06-.34,0-.46-.16Z"/>
    <path class="cls-4" d="m27.6,20.93c.07.16.11.32.12.49-.13.34-.21.39-.56.38-.22-.63-.75-.81-1.33-.96-.48-.12-.95-.28-1.42-.43-.26-.08-.38-.29-.36-.53.02-.18.19-.36.4-.38.15-.02.29.03.43.09.56.23,1.14.38,1.71.56.29.1.57.21.79.43.09.11.17.23.23.35Z"/>
    <path class="cls-5" d="m18.97,6.39c0,.27-.22.47-.51.47-.26,0-.45-.21-.45-.48,0-.26.21-.48.46-.48.26,0,.5.23.5.5Z"/>
    <path class="cls-5" d="m18.95,8.11c0,.27-.22.48-.48.48-.26,0-.46-.21-.46-.47,0-.27.19-.48.45-.48.28,0,.49.2.49.48Z"/>
    <path class="cls-5" d="m19.79,8.32c.06-.02.12-.05.18-.06.23-.05.44.04.54.24.1.19.06.41-.09.55-.17.16-.41.18-.61.06-.1-.06-.16-.15-.22-.24,0-.2.07-.38.19-.54Z"/>
    <path class="cls-5" d="m19.83,6.77c.14-.06.27-.13.43-.1.13.02.25.11.3.23.11.23.03.55-.22.66-.16.07-.32.03-.48,0-.22-.25-.24-.51-.03-.78Z"/>
    <path class="cls-4" d="m12.84,6.39c0,.28-.22.48-.51.47-.26,0-.45-.22-.45-.49,0-.28.22-.5.49-.49.25,0,.47.25.47.5Z"/>
    <path class="cls-4" d="m12.38,7.64c.27,0,.46.18.46.46,0,.29-.18.49-.46.49-.27,0-.48-.2-.48-.45,0-.3.19-.49.48-.5Z"/>
    <path class="cls-5" d="m11.2,8.86c-.18.28-.35.38-.57.32-.19-.05-.29-.19-.32-.37-.03-.18,0-.35.16-.47.16-.11.33-.1.49-.03.04.02.07.04.1.06.11.15.17.31.14.49Z"/>
    <path class="cls-5" d="m11,7.51c-.25.14-.46.12-.62-.04-.14-.14-.17-.39-.06-.58.14-.24.42-.29.71-.11.18.25.17.49-.02.73Z"/>
    <path class="cls-8" d="m24.37,6.99c.06-.03.11-.06.18-.06.04,0,.13.03.08.09-.04.04-.09,0-.14,0-.05,0-.09.03-.12-.03Z"/>
    <path class="cls-8" d="m24.32,7.13s-.1,0-.13-.02c-.03-.02-.04-.07-.02-.1.02-.03.07-.02.1,0,.04.03.04.09.04.13,0,0,0,0,0,0Z"/>
    <path class="cls-2" d="m8.91,10.21c.25,0,.43.16.43.4,0,.25-.19.45-.43.45-.22,0-.42-.2-.42-.42,0-.25.16-.42.43-.42Z"/>
    <path class="cls-2" d="m7.09,9.7c0-.23.2-.42.43-.42.22,0,.44.22.44.44,0,.23-.21.44-.44.43-.23,0-.42-.21-.42-.45Z"/>
    <path class="cls-2" d="m6.57,8.83c0,.22-.19.41-.41.4-.22,0-.38-.17-.38-.38,0-.25.16-.42.38-.42.22,0,.41.19.41.4Z"/>
    <path class="cls-2" d="m21.97,10.2c.25,0,.42.2.4.46-.01.23-.22.41-.46.4-.21-.01-.41-.23-.4-.45.02-.32.15-.42.46-.41Z"/>
    <path class="cls-2" d="m22.9,9.71c0-.24.2-.43.45-.42.21,0,.41.2.41.41,0,.23-.22.46-.44.45-.24,0-.43-.2-.42-.44Z"/>
    <path class="cls-2" d="m25.09,8.84c0,.21-.18.38-.41.38-.24,0-.41-.16-.41-.39,0-.22.18-.41.4-.41.22,0,.41.19.42.42Z"/>
    <path class="cls-4" d="m11.93,23.43c-.2-.01-.31-.15-.31-.37,0-.2.16-.35.35-.34.18.01.35.19.34.36,0,.2-.18.36-.38.35Z"/>
    <path class="cls-4" d="m12.57,22.44c-.18,0-.32-.14-.32-.34,0-.19.14-.35.32-.35.18,0,.33.15.34.34,0,.2-.14.35-.33.35Z"/>
    <path class="cls-1" d="m12.76,2.7s.05-.03.06.02c-.02.02-.05.04-.07.05,0,0,0,0,0,0,0-.02,0-.05.01-.07Z"/>
    <path class="cls-4" d="m15.88,6.52c0,.26-.2.48-.45.48-.26,0-.46-.19-.46-.47,0-.26.19-.47.44-.47.26,0,.48.2.48.45Z"/>
    <path class="cls-4" d="m15.42,8.5c-.26,0-.45-.18-.45-.43,0-.25.21-.47.45-.47.23,0,.43.21.44.46,0,.25-.18.44-.44.45Z"/>
    <path class="cls-4" d="m15.87,5.04c0,.25-.19.45-.43.45-.25,0-.44-.19-.44-.44,0-.26.19-.46.45-.45.23,0,.42.2.42.44Z"/>
    <path class="cls-4" d="m18.88,22.72c.2,0,.36.16.36.36,0,.18-.18.35-.36.34-.18,0-.33-.16-.33-.36,0-.19.14-.34.33-.34Z"/>
    <path class="cls-4" d="m18.59,22.08c0,.18-.16.35-.34.35-.18,0-.32-.14-.32-.33,0-.19.14-.35.31-.35.17,0,.34.16.35.33Z"/>
    <path class="cls-4" d="m3.75,21.79c-.32.05-.51-.09-.55-.4-.02-.16,0-.32.07-.47.03-.06.06-.13.09-.19.01-.01.02-.03.04-.04,0,0,0,0,0,0,.3-.37.74-.5,1.17-.64.48-.15.96-.28,1.42-.48.06-.02.12-.04.18-.06.27-.07.52.04.6.26.08.23-.02.48-.28.59-.24.1-.5.18-.75.26-.36.11-.71.22-1.07.33-.44.13-.77.39-.93.83Z"/>
    <path class="cls-8" d="m6.93,20.93s-.07-.03-.05-.06c.02-.04.06.02.07.04,0,0-.02.02-.02.02Z"/>
    <path class="cls-4" d="m3.91,22.67s-.01-.02-.02-.03c0,0,0-.01,0-.02.02.01.04.02.01.04Z"/>
    <path class="cls-2" d="m6.2,14.37c-.25,0-.42-.18-.42-.44,0-.23.21-.44.43-.44.23,0,.45.23.45.45,0,.26-.19.43-.47.43Z"/>
    <path class="cls-2" d="m4.66,12.98c.24,0,.43.2.43.43,0,.22-.22.41-.45.42-.23,0-.42-.19-.42-.42,0-.26.18-.43.44-.43Z"/>
    <path class="cls-2" d="m24.64,13.53c.26,0,.43.18.42.43,0,.25-.2.43-.46.42-.23,0-.42-.21-.41-.45,0-.24.2-.41.45-.41Z"/>
    <path class="cls-2" d="m25.79,13.39c0-.25.18-.43.43-.42.23,0,.42.2.41.41,0,.27-.19.44-.46.44-.22,0-.39-.19-.39-.43Z"/>
    <path class="cls-4" d="m26.19,17.27c0,.06,0,.13,0,.19,0,.2-.14.34-.32.34-.19,0-.36-.16-.36-.34,0-.15,0-.3,0-.45,0-.18.14-.3.32-.3.21,0,.34.1.35.3,0,.08,0,.17,0,.25,0,0,0,0,0,0Z"/>
    <path class="cls-4" d="m24.53,17.45c-.17,0-.31-.06-.44-.15-.04-.2-.02-.4,0-.6.02-.2.14-.3.31-.3.21,0,.29.09.31.31.01.17-.01.33,0,.5.01.11-.13.14-.18.23Z"/>
    <path class="cls-4" d="m23.11,16.49c0-.22.15-.37.38-.36.23,0,.38.15.38.37,0,.2-.2.4-.38.4-.2,0-.39-.19-.38-.41Z"/>
    <path class="cls-3" d="m23.79,17.22s-.01-.03,0-.03c0,.02.01.03,0,.03Z"/>
    <polygon class="cls-3" points="23.34 16.98 23.35 16.98 23.34 16.99 23.34 16.98"/>
    <path class="cls-2" d="m16.19,19.19s-.01,0-.03,0c0,0,.02,0,.03,0Z"/>
    <path class="cls-4" d="m5.35,17.2c0,.08,0,.17,0,.25,0,.16-.1.25-.23.31-.15.06-.28,0-.4-.09-.12-.1-.06-.82.07-.91.13-.09.25-.08.38-.01.12.06.17.15.16.28,0,.06,0,.12,0,.17,0,0,0,0,.01,0Z"/>
    <path class="cls-4" d="m6.73,16.92c0,.15,0,.33-.12.44-.13.1-.3.05-.44.03-.16-.26-.1-.54-.06-.8.02-.15.18-.2.33-.17.18.03.29.13.29.33,0,.02,0,.02,0,.02,0,.06,0,.11,0,.17Z"/>
    <path class="cls-2" d="m7.16,16.87s0,0,0,0c-.14-.15-.24-.31-.16-.52.06-.17.24-.26.4-.22.18.04.32.22.3.4,0,.06-.03.13-.05.19,0,0,0,0,0,0-.03.02-.06.04-.07.09,0,0,0,0,0,0-.02.01-.04.03-.06.04-.1.03-.2.05-.31.08-.01-.04-.04-.05-.08-.04Z"/>
    <path class="cls-3" d="m6.73,16.75s0,0,0-.02c0,0,0,0,0,.02Z"/>
    <path class="cls-3" d="m5.66,17.8s-.06-.04-.1-.07c.07-.01.08.03.1.07,0,0,0,0,0,0Z"/>
    <path class="cls-4" d="m21.75,21.49c.2,0,.36.15.36.35,0,.19-.17.36-.36.36-.19,0-.36-.17-.36-.36,0-.2.16-.36.36-.36Z"/>
    <path class="cls-4" d="m21.13,20.97c0,.21-.15.38-.34.37-.18,0-.36-.2-.36-.39,0-.19.16-.35.34-.35.21,0,.36.15.36.37Z"/>
    <path class="cls-4" d="m20.03,20.35c-.24-.09-.3-.21-.27-.51.1-.13.21-.22.38-.17.16.04.26.14.26.32,0,.21-.15.34-.38.36Z"/>
    <path class="cls-5" d="m9.07,22.2c-.19,0-.33-.16-.33-.36,0-.2.17-.37.36-.36.19,0,.35.18.34.38,0,.2-.17.35-.37.35Z"/>
    <path class="cls-5" d="m10.4,20.96c0,.2-.16.37-.34.38-.17,0-.34-.16-.34-.35,0-.21.16-.4.35-.39.17,0,.34.18.34.37Z"/>
    <path class="cls-5" d="m10.71,19.64c.19.01.34.09.4.27.06.18-.03.34-.24.44-.2,0-.35-.09-.4-.29-.04-.17.04-.31.19-.4,0,0,0,0,0,0h0s.02-.02.03-.03Z"/>
    <polygon class="cls-3" points="10.68 19.66 10.68 19.67 10.67 19.67 10.67 19.66 10.68 19.66"/>
    <path class="cls-4" d="m15.43,26.13c-.29,0-.5-.2-.5-.48,0-.26.25-.51.52-.51.25,0,.48.23.48.47,0,.29-.21.51-.5.52Z"/>
    <path class="cls-7" d="m7.6,16.79s.03-.07.07-.09c.05.08,0,.1-.07.09Z"/>
    <path class="cls-7" d="m7.16,16.87s.07,0,.08.04c-.03,0-.06,0-.08-.04Z"/>
    <path class="cls-7" d="m7.54,16.83s.04-.03.06-.04c-.01.03-.03.04-.06.04Z"/>
    <path class="cls-7" d="m23.22,17.22c-.15-.02-.1-.09-.04-.16,0,0,0,0,0,0,.18,0,.02.11.04.16h0Z"/>
    <path class="cls-7" d="m24.43,17.71s.01.01.02.02c0,0-.02.02-.03,0,0-.01,0-.02.01-.03Z"/>
    <path class="cls-7" d="m23.23,17.22s.01.02.02.03c0,0-.01-.02-.02-.03,0,0,0,0,0,0Z"/>
    <path class="cls-2" d="m6.28,7.01s.13.03.07.06c-.04.02-.06-.03-.07-.06,0,0,0,0,0,0Z"/>
    <path class="cls-2" d="m12.76,2.7s0,.05-.01.07c-.03,0-.05,0-.08,0h0c0-.05,0-.1,0-.14.05,0,.06.04.08.07Z"/>
    <path class="cls-1" d="m12.36,2.46s0-.04,0-.07c.04.02.02.05-.01.06,0,0,0,0,0,0Z"/>
    <path class="cls-2" d="m12.67,2.77s0,.11-.07.1c-.01,0-.03-.02-.04-.03,0-.08.06-.06.11-.07,0,0,0,0,0,0Z"/>
    <path class="cls-4" d="m12.17,2.65s.04,0,.02.03c0,0-.03,0-.04,0,0,0,.01-.01.02-.02Z"/>
    <path class="cls-2" d="m3.36,20.73s.02-.03.04-.04c-.01.01-.02.03-.04.04Z"/>
  </g>
</svg>